<?xml version="1.0" encoding="UTF-8" standalone="no"?>
<!-- Created with Keyshape -->
<svg xmlns="http://www.w3.org/2000/svg" width="180" height="150" viewBox="0 0 180 150" fill="none">
    <defs>
        <clipPath id="xba3pm570f2179shk74btwee">
            <path id="yhwujogcjo5asif6xfnmyu5m" fill="#000000" stroke="none" stroke-width="0" d="M1,18.6686L92.1737,16.5439L93.1737,-35.5127L131.57,-42.9494L131.57,69.6627L-37.4303,69.6627L-37.4303,-38.6999L0,-35.5127Z" transform="translate(55.9656,44.3102) scale(0.896234,1.92779) translate(-48.0381,-9.6532)"/>
        </clipPath>
    </defs>
    <style>
@keyframes b6xoottll30356wigpqhadnn_o { 0% { opacity: 1; } 10.4375% { opacity: 1; animation-timing-function: cubic-bezier(0.42,0,0.58,1); } 26.875% { opacity: 0; animation-timing-function: cubic-bezier(0.42,0,0.58,1); } 47.9375% { opacity: 1; } 62.5% { opacity: 1; animation-timing-function: cubic-bezier(0.42,0,0.58,1); } 78.9375% { opacity: 0; animation-timing-function: cubic-bezier(0.42,0,0.58,1); } 100% { opacity: 1; } }
@keyframes y7rjc0lf2ajjejvopca50fzo_o { 0% { opacity: 1; } 4.1875% { opacity: 1; animation-timing-function: cubic-bezier(0.42,0,0.58,1); } 20.625% { opacity: 0; animation-timing-function: cubic-bezier(0.42,0,0.58,1); } 41.6875% { opacity: 1; } 56.25% { opacity: 1; animation-timing-function: cubic-bezier(0.42,0,0.58,1); } 72.6875% { opacity: 0; animation-timing-function: cubic-bezier(0.42,0,0.58,1); } 93.75% { opacity: 1; } 100% { opacity: 1; } }
@keyframes paqo2zeg9uk5lbtjg4gy4xrb_o { 0% { opacity: 1; animation-timing-function: cubic-bezier(0.42,0,0.58,1); } 14.375% { opacity: 0; animation-timing-function: cubic-bezier(0.42,0,0.58,1); } 35.4375% { opacity: 1; } 52.0625% { opacity: 1; animation-timing-function: cubic-bezier(0.42,0,0.58,1); } 66.4375% { opacity: 0; animation-timing-function: cubic-bezier(0.42,0,0.58,1); } 87.5% { opacity: 1; } 100% { opacity: 1; } }
@keyframes m19ofarf9lorvw2ki1anerz3_t { 0% { transform: translate(55.5458px,55.5458px) rotate(0deg) translate(-55.5458px,-55.5458px); } 100% { transform: translate(55.5458px,55.5458px) rotate(360deg) translate(-55.5458px,-55.5458px); } }
    </style>
    <path d="M43.5876,90.2811C49.5378,90.0965,55.4997,90.076,61.4587,90.2811C68.2966,90.2606,75.1374,90.3455,81.9665,90.2576C85.4821,90.4217,88.9977,90.158,92.5134,90.161C95.736,90.202,98.9587,89.9529,102.181,89.9998C106.054,89.9149,109.784,90.6649,113.587,89.7068C115.462,89.2908,117.34,88.3475,118.462,86.742C119.267,85.7342,119.551,84.5184,119.856,83.2908C120.665,80.0447,120.088,76.6053,120.392,73.1776C120.641,70.7138,120.656,68.232,120.436,65.7654C120.436,62.9207,120.454,60.0672,120.6,57.2225C120.632,55.6756,120.457,54.1404,120.55,52.5936C120.58,49.7635,120.424,46.9334,120.512,44.0975C120.603,41.68,120.562,39.2594,120.389,36.8465C120.017,34.3563,119.361,31.7811,117.167,30.2693C114.301,28.3035,111.058,28.4324,107.745,28.4002C105.495,28.283,103.254,28.3592,101.007,28.3445C97.3825,28.3973,93.7995,28.6551,90.1667,28.4324C87.8229,28.5555,85.4792,28.4822,83.1354,28.5965C79.6198,28.5496,76.1042,28.8895,72.5886,28.7049C69.6589,28.6639,66.7292,28.7049,63.7995,28.7342C59.112,29.0008,54.4245,28.6316,49.737,28.7752C46.1159,28.7225,42.5153,28.9656,38.8971,28.9451C36.6764,28.9979,34.6813,28.7371,32.569,29.5779C31.1833,30.1434,29.7331,31.0691,28.9479,32.3787C28.2946,33.4363,27.7145,34.6375,27.6003,35.8943C27.3073,39.0233,27.0143,42.1287,27.1608,45.2693C27.2663,46.784,27.2399,48.3016,27.2575,49.8191C27.2575,50.5,27.2575,60,27.3952,62.9969C27.4186,65.8797,27.3219,68.7537,27.3776,71.6336C27.1169,75.1492,27.2926,78.6649,27.4303,82.1805C27.5944,84.1434,27.7614,86.0213,29.1413,87.5506C30.7848,89.2762,33.0671,89.9764,35.3962,90.0965C38.1208,90.1756,40.86,90.2108,43.5876,90.2811ZM31.9948,87.325C31.4519,87.0453,30.9772,86.6497,30.6041,86.1662C30.231,85.6827,29.9686,85.1232,29.8356,84.5272C29.3581,82.409,29.487,80.3758,29.3493,78.1404C29.1618,73.8133,29.4928,69.5184,29.4811,65.1912C29.4137,62.2615,29.528,59.3318,29.4372,56.4022C29.5925,53.657,29.2966,50.9441,29.3229,48.199C29.3551,45.5096,29.0065,42.908,29.279,40.2156C29.5456,37.9217,29.2438,35.8856,30.4069,33.7996C31.4352,31.6317,34.3385,30.8231,36.5593,30.9549C40.28,31.0574,43.9743,30.8055,47.6921,30.7703C51.9958,30.7029,56.2848,30.6912,60.5827,30.6063C64.0983,31.0369,67.5817,30.6063,71.112,30.8553C75.1198,30.826,79.1364,30.949,83.1237,30.7322C86.2468,30.6414,89.3727,30.6912,92.4987,30.5857C96.0143,30.6385,99.53,30.3602,103.046,30.4305C106.365,30.6121,109.971,30.2986,113.299,30.7234C115.216,30.9871,116.713,32.3201,117.624,33.9666C113.074,34.7459,108.735,37.5086,105.319,40.5262C104.496,41.1561,103.705,41.8268,102.949,42.5359C100.5,44.9647,97.9128,47.3406,95.9997,50.241C95.4928,50.9998,94.9421,51.7059,94.3796,52.4412C92.1413,55.5027,90.1344,58.7254,87.9079,61.7957C87.4772,62.4813,87.029,63.0525,87.4157,63.8875C88.4089,63.9842,89.0446,62.9852,89.613,62.3201C91.9802,59.2029,93.9284,55.7518,96.3747,52.6873C97.2389,51.577,97.9831,50.408,98.8854,49.3211C100.467,47.3758,102.299,45.7762,104.091,43.9774C105.129,42.9344,106.315,42.1229,107.423,41.1473C108.776,39.9432,110.367,38.9764,111.89,38.0067C113.789,36.9022,115.866,35.9119,118.025,35.4549C118.467,37.3856,118.382,39.2635,118.506,41.241C118.567,44.5369,118.441,47.8328,118.523,51.1287C118.634,54.6619,118.306,58.16,118.523,61.6756C118.816,65.2527,118.617,68.9266,118.573,72.5154C118.473,75.4275,118.634,78.4188,118.248,81.3045C117.955,82.9246,117.741,84.7469,116.469,85.9275C114.975,87.492,112.444,87.9256,110.382,88.1395C107.109,88.2684,103.832,88.2244,100.564,88.0076C98.0651,87.8553,95.5837,88.1365,93.0964,88.0838C89.1911,88.1072,85.2858,88.2303,81.3776,88.3768C76.0339,88.116,70.6491,88.2127,65.2966,88.2215C66.9401,87.3631,68.4225,86.1707,69.9372,85.0985C72.0817,83.5486,73.9919,81.7469,75.943,79.9656C77.9089,77.9734,80.0446,75.9607,81.6589,73.6756C82.652,72.2957,83.7741,71.1883,84.4626,69.6063L84.0055,68.9354C83.5193,69.0966,83.0886,69.3921,82.7634,69.7879C81.7321,71.0125,80.6803,72.2225,79.7106,73.4969C78.4157,75.1463,76.9421,76.5408,75.4684,78.0232C72.3093,81.2584,68.8128,84.1459,65.0387,86.6365C64.0104,87.2225,62.9147,87.8963,61.7604,88.1746C60.0026,88.2625,58.2448,88.2156,56.487,88.201C52.3034,87.9901,48.0671,88.0867,43.8893,88.1805C41.0534,88.0018,38.2233,88.1805,35.3932,88.034C34.2258,88.0149,33.0725,87.7743,31.9948,87.325L31.9948,87.325Z" fill="black" transform="translate(78.1765,67.7987) translate(-63.1765,-67.7988)"/>
    <path d="M49.4463,61.4644C50.3204,61.4787,51.1946,61.4474,52.0654,61.3707C53.5801,61.2477,55.206,61.485,56.4951,60.5387C57.4883,59.8355,57.7226,58.7545,57.79,57.609C57.8926,54.4742,57.9043,51.3394,57.9131,48.2018C57.9131,46.9186,57.8896,45.6969,57.5117,44.4576C57.3582,43.9596,57.0617,43.5178,56.659,43.187C56.2564,42.8562,55.7654,42.6511,55.2471,42.5973C50.5303,41.9293,45.6494,42.067,40.9209,42.5621C39.9418,42.753,39.0018,43.1075,38.1406,43.6109C36.7607,44.6656,36.708,46.315,36.6347,47.9059C36.5849,51.4918,36.2217,55.482,36.9541,58.9918C37.3642,60.8228,39.2978,61.3355,40.9326,61.482C43.7685,61.5611,46.6103,61.3619,49.4463,61.4644ZM44.7119,49.7457C46.4082,49.6578,48.0957,49.4908,49.7949,49.4908C49.9613,51.0856,50.0122,52.6904,49.9472,54.2926C48.2398,54.4458,46.5241,54.485,44.8115,54.4098C44.6152,52.8482,44.8613,51.3043,44.7119,49.7428L44.7119,49.7457ZM55.1328,59.443C54.4941,59.7535,53.6679,59.7359,52.956,59.7857C51.333,59.8092,49.7568,60.026,48.1338,59.8971C48.0664,58.605,48.0899,57.3098,48.2041,56.0211C49.1914,55.9391,50.1699,55.8482,51.1543,55.7603C52.8623,56.4869,54.4707,57.4566,56.1347,58.2506C55.8476,58.7105,55.6631,59.191,55.1328,59.44L55.1328,59.443ZM56.164,56.6832C54.6992,55.7105,53.0527,55.1891,51.4765,54.4449C51.3945,52.7398,51.459,51.0494,51.1484,49.3561C52.8652,48.4771,54.8691,47.7535,56.3076,46.4264C56.4448,49.8444,56.3969,53.2674,56.164,56.6803L56.164,56.6832ZM54.4443,43.775C55.3232,43.7984,55.6601,44.3609,56.1875,44.9293C54.1894,45.9371,52.165,46.9332,50.2607,48.108C49.5908,48.0846,48.918,48.068,48.2422,48.0582C48.2818,46.7013,48.2377,45.3433,48.1103,43.9918L48.0869,43.7223C50.2054,43.6275,52.3275,43.6442,54.4443,43.7721L54.4443,43.775ZM40.1357,44.273C42.2773,43.8834,44.4951,43.9625,46.6631,43.7164C46.6924,45.1812,46.7656,46.6461,46.7217,48.1109C46.1357,48.1812,45.5498,48.2467,44.9638,48.3072C42.8867,47.0885,40.5693,46.2184,38.3603,45.2838C38.8994,44.8238,39.3887,44.3902,40.1357,44.273ZM38.1758,46.5406C39.8931,47.5272,41.6733,48.4002,43.5049,49.1539C43.3642,51.0055,43.0508,52.6871,43.3496,54.5445C41.5039,55.0162,39.834,55.86,38.123,56.6393C37.9502,53.2936,37.8447,49.8775,38.167,46.5406L38.1758,46.5406ZM38.2256,58.1686C40.1152,57.4566,41.8789,56.4928,43.6982,55.6461C44.7148,55.6461,45.7109,56.0416,46.748,56.0357C46.6733,57.347,46.6645,58.6611,46.7217,59.9732C45.3879,60.0847,44.0465,60.064,42.7168,59.9117C41.5303,59.7828,40.1797,60.0406,39.1631,59.3844C38.7148,59.1383,38.4805,58.5816,38.2168,58.1598L38.2256,58.1686Z" fill="black" transform="translate(62.207,51.8218) translate(-47.207,-51.8219)"/>
    <path d="M74.7064,52.7392C74.3754,54.6054,73.473,56.1406,72.7406,57.8544C72.8842,58.1298,73.0336,58.4052,73.1683,58.6835C73.6254,58.6074,74.1937,58.7832,74.4369,58.291C75.5684,56.5727,76.3471,54.6468,76.7279,52.625C77.0033,50.1699,76.7279,47.6445,75.6234,45.4179C75.1224,44.2929,74.2845,43.1884,73.098,42.7431C72.6439,42.5966,72.4301,42.9277,72.0609,43.1328C72.4711,44.2431,73.3441,45.0283,73.8187,46.0918C74.7715,48.1693,75.0807,50.4845,74.7064,52.7392L74.7064,52.7392Z" fill="black" opacity="1" transform="translate(89.444,50.6951) translate(-74.444,-50.6952)" style="animation: 1.6s linear infinite both b6xoottll30356wigpqhadnn_o;"/>
    <path d="M69.12,54.4005C68.8833,54.9913,68.8114,55.6353,68.912,56.2638C69.4071,56.2345,70.0839,56.4982,70.4061,56.0177C71.3319,54.9923,71.6014,53.3224,71.8446,52.0069C72.0292,49.4786,71.8124,46.6163,69.4364,45.1456C69.1434,45.2247,68.8798,45.3097,68.6044,45.4005C68.036,46.5167,69.1376,47.3312,69.4833,48.3478C70.0956,50.2667,69.8583,52.5372,69.12,54.4005Z" fill="black" opacity="1" transform="translate(85.1698,50.7277) translate(-70.1698,-50.7278)" style="animation: 1.6s linear infinite both y7rjc0lf2ajjejvopca50fzo_o;"/>
    <path d="M65.0392,53.7191C65.0187,54.3871,65.9445,54.85,66.3693,54.3051C67.7491,52.2279,67.7989,49.1518,65.7833,47.4379C65.4337,47.5341,65.0994,47.6791,64.7902,47.8686C64.9689,48.809,65.4376,49.6732,65.5636,50.6107C65.7101,51.642,65.0626,52.7582,65.0392,53.7191Z" fill="black" opacity="1" transform="translate(81.0739,50.9915) translate(-66.0739,-50.9916)" style="animation: 1.6s linear infinite both paqo2zeg9uk5lbtjg4gy4xrb_o;"/>
    <path d="M58.5322,67.7314C61.2598,67.8398,64.0049,67.5703,66.7353,67.5732C68.2881,67.4999,69.7178,67.5732,71.2061,67.0634C71.2295,66.7705,71.2559,66.4775,71.2793,66.1845C70.0312,65.6513,68.9355,65.9912,67.6055,65.9531C64.9687,65.9531,62.332,66.0615,59.6807,66.246C59.0276,66.3127,58.3823,66.4402,57.7529,66.6269C57.7881,67.2421,57.7734,67.708,58.5322,67.7314Z" fill="black" transform="translate(79.5161,66.819) translate(-64.5161,-66.8191)"/>
    <path d="M97.613,67.4073C98.9284,67.504,100.27,67.3546,101.586,67.3312C103.929,67.2931,106.291,67.378,108.637,67.3546C109.472,67.3677,110.29,67.1232,110.981,66.6544C110.709,66.4464,110.419,66.0304,110.052,65.9864C105.869,65.5323,101.729,65.6495,97.5456,66.0157C97.3899,66.0596,97.2538,66.1549,97.1593,66.2862C97.0648,66.4174,97.0177,66.5768,97.0255,66.7383C97.0333,66.8999,97.0957,67.054,97.2024,67.1755C97.3091,67.297,97.4538,67.3787,97.613,67.4073L97.613,67.4073Z" fill="black" transform="translate(119.003,66.5652) translate(-104.003,-66.5653)"/>
    <path d="M44.1735,67.9018C46.7194,67.7964,49.2506,68.1362,51.694,67.6382C51.694,67.2515,51.7145,66.8618,51.7203,66.4663C48.5211,66.3579,45.3131,66.2847,42.1139,66.2671C40.9625,66.2993,39.7262,66.2436,38.5983,66.5015C38.4547,66.6186,38.3053,66.7388,38.1676,66.8589C38.1969,67.1284,38.2233,67.3979,38.2526,67.6645C40.1364,68.1802,42.2311,67.8286,44.1735,67.9018Z" fill="black" transform="translate(59.944,67.1092) translate(-44.944,-67.1093)"/>
    <path d="M77.4717,67.6237C79.8359,67.8083,82.2236,67.5388,84.6055,67.6237C86.8086,67.5622,88.8564,67.8522,91.0303,67.3132C90.9874,66.9913,90.9169,66.6737,90.8193,66.364C90.3582,66.1129,89.8414,65.982,89.3164,65.9831C86.8584,65.9567,84.4063,65.9333,81.9512,66.0593C80.2607,66.1911,78.6641,66.0593,77.0117,66.569C77.1172,66.8884,77.1113,67.4831,77.4717,67.6237Z" fill="black" transform="translate(99.021,66.8259) translate(-84.021,-66.826)"/>
    <path d="M101.953,77.5546C101.953,79.0575,101.545,80.4404,101.724,81.9491C102.398,82.163,102.928,82.5116,103.658,82.3212C105.123,81.9726,106.505,80.9648,107.792,80.2001C109.18,79.3417,110.487,78.6122,111.123,77.0038C110.49,76.9335,109.951,76.7636,109.365,77.1005C107.422,78.1142,105.673,79.4677,103.734,80.496C103.904,79.4301,103.931,78.3463,103.813,77.2734C103.701,76.8137,103.434,76.4069,103.056,76.1217C102.679,75.8366,102.214,75.6908,101.742,75.7089C100.212,75.8554,98.8326,76.7607,97.6197,77.6425C96.7068,78.2883,95.8546,79.0159,95.0738,79.8163C94.6695,80.2323,94.7369,80.7245,94.6314,81.2636C95.5503,81.0904,96.4202,80.7184,97.1802,80.1738C98.6568,79.0107,100.139,78.0087,101.953,77.5546Z" fill="black" transform="translate(117.877,79.0417) translate(-102.877,-79.0418)"/>
    <path d="M43.0005,81.0797C44.9546,81.1148,46.9058,81.0797,48.8599,81.1617C51.104,81.2496,53.231,81.0855,55.4663,81.4254C55.7915,81.0269,56.0962,80.6138,56.3862,80.189C56.231,79.8961,56.0933,79.6207,55.9263,79.3365C54.1421,79.1754,52.3696,79.3863,50.5854,79.272C47.8462,79.1109,45.145,79.1021,42.4175,79.0904C41.0786,79.0904,39.7808,79.0904,38.48,79.4859C38.4223,79.935,38.3881,80.3868,38.3774,80.8394C39.9507,81.3052,41.3833,81.0386,43.0005,81.0797Z" fill="black" transform="translate(62.3818,80.2578) translate(-47.3818,-80.2579)"/>
    <g clip-path="url(#xba3pm570f2179shk74btwee)" transform="translate(90,83.9999) scale(1.11578,0.488272) translate(-55.5458,-55.5458)">
        <g transform="translate(55.5458,55.5458) translate(-55.5458,-55.5458)" style="animation: 1.6s linear infinite both m19ofarf9lorvw2ki1anerz3_t;">
            <ellipse rx="55.5458" ry="55.5458" stroke="#000000" fill="none" stroke-width="10" stroke-miterlimit="316.92000000723459" stroke-linecap="round" stroke-linejoin="round" stroke-dasharray="230" transform="translate(55.5458,55.5458)"/>
            <path id="qj8x9gwuqt4jytlp0ntgtxlr" d="M44.9258,108.265C45.7077,107.472,49.1077,105.436,49.6202,104.613C49.7772,104.395,49.7524,104.165,49.5486,103.952C49.345,103.741,48.9726,103.557,48.4819,103.427C47.4408,103.307,46.1637,103.48,45.237,103.66C43.9565,103.92,42.6794,104.168,41.3779,104.407C37.5222,105.058,33.9893,106.101,30.5501,107.014C29.4361,107.285,29.509,107.749,29.9219,108.17C30.6924,108.874,31.9071,109.516,32.903,110.179C34.1666,110.995,35.5741,111.779,37.1162,112.526C39.0354,113.476,40.7497,114.422,42.8875,115.308C43.6996,115.628,44.5602,115.902,45.8235,115.849C46.6529,115.862,47.9266,115.616,47.8746,115.263C47.944,114.453,44.9423,112.117,44.7202,111.308C45.8844,111.465,48.1875,112.224,49.0051,111.994C51.1087,111.401,53.0672,109.445,51.9011,108.716C51.2358,108.3,45.8698,108.265,44.9258,108.265Z" fill="black" fill-rule="nonzero" transform="translate(27.5622,6.25295) rotate(128.364) scale(1.1388,2.47835) translate(-40.9469,-109.621)"/>
        </g>
    </g>
</svg>
